File Name

Cherrybomb 2009 BRRip H264.mp4

File Size
Format : MPEG-4
Format profile : Base Media
Codec ID : isom
File size : 1.55 GiB
Duration : 1h 25mn
Overall bit rate : 2 574 Kbps

Video
ID : 1
Format : AVC
Format/Info : Advanced Video Codec
Format profile : High@L4.1
Format settings, CABAC : Yes
Format settings, ReFrames : 3 frames
Codec ID : avc1
Codec ID/Info : Advanced Video Coding
Duration : 1h 25mn
Bit rate mode : Variable
Bit rate : 1 999 Kbps
Maximum bit rate : 20.1 Mbps
Width : 1 280 pixels
Height : 544 pixels
Display aspect ratio : 2.35:1
Frame rate mode : Constant
Frame rate : 23.976 fps
Resolution : 24 bits
Colorimetry : 4:2:0
Scan type : Progressive
Bits/(Pixel*Frame) : 0.120
Stream size : 1.20 GiB (77%)

Audio #1
ID : 2
Format : AAC
Format/Info : Advanced Audio Codec
Format version : Version 4
Format profile : LC
Format settings, SBR : No
Codec ID : 40
Duration : 1h 25mn
Bit rate mode : Variable
Bit rate : 128 Kbps
Maximum bit rate : 137 Kbps
Channel(s) : 2 channels
Channel positions : L R
Sampling rate : 48.0 KHz
Resolution : 16 bits
Stream size : 78.7 MiB (5%)

Audio #2
ID : 3
Format : AAC
Format/Info : Advanced Audio Codec
Format version : Version 4
Format profile : LC
Format settings, SBR : No
Codec ID : 40
Duration : 1h 25mn
Bit rate mode : Variable
Bit rate : 448 Kbps
Maximum bit rate : 462 Kbps
Channel(s) : 6 channels
Channel positions : Front: L C R, Rear: L R, LFE
Sampling rate : 48.0 KHz
Resolution : 16 bits
Stream size : 275 MiB (17%)

English SRT : ----

Language : English

 
http://www.imdb.com/title/tt1248971/

Release Date: ====

Genre: Drama | Thriller 

Plot: Three teenagers go on a wild weekend of drink, drugs, shop-lifting and stealing cars that quickly spins beyond their control. 

Cast: 
Rupert Grint ... Malachy
Robert Sheehan ... Luke
Kimberley Nixon ... Michelle
Kathy Kiera Clarke ... Emma
Greer Ellison ... Bun
Paul Garret ... Bob
Paul Kennedy ... Chris
Kat Kirk ... Sharon
Conor MacNeill ... Fanta
James Nesbitt ... Crilly
Niamh Quinn ... Donna
Lalor Roddy ... Smiley



Screens

 
http://postimg.com/image/18000/17909.jpg
 
http://postimg.com/image/18000/17910.jpg
 
http://postimg.com/image/18000/17911.jpg